<?xml version="1.0" encoding="UTF-8"?><svg xmlns="http://www.w3.org/2000/svg" xmlns:xlink="http://www.w3.org/1999/xlink" contentScriptType="application/ecmascript" contentStyleType="text/css" height="255px" preserveAspectRatio="none" style="width:2583px;height:255px;" version="1.1" viewBox="0 0 2583 255" width="2583px" zoomAndPan="magnify">
    <defs>
        <filter height="300%" id="fu7dwwa339vaq" width="300%" x="-1" y="-1">
            <feGaussianBlur result="blurOut" stdDeviation="2.0"/>
            <feColorMatrix in="blurOut" result="blurOut2" type="matrix" values="0 0 0 0 0 0 0 0 0 0 0 0 0 0 0 0 0 0 .4 0"/>
            <feOffset dx="4.0" dy="4.0" in="blurOut2" result="blurOut3"/>
            <feBlend in="SourceGraphic" in2="blurOut3" mode="normal"/>
        </filter>
    </defs>
    <g>
        <!--cluster java.lang-->
        <polygon fill="#FFFFFF" filter="url(#fu7dwwa339vaq)" points="22,148,91,148,98,171.6094,132,171.6094,132,248,22,248,22,148" style="stroke: #000000; stroke-width: 2.0;"/>
        <line style="stroke: #000000; stroke-width: 2.0;" x1="22" x2="98" y1="171.6094" y2="171.6094"/>
        <text fill="#000000" font-family="sans-serif" font-size="14" font-weight="bold" lengthAdjust="spacingAndGlyphs" textLength="63" x="26" y="164.5332">java.lang</text>
        <!--cluster inception-->
        <polygon fill="#FFFFFF" filter="url(#fu7dwwa339vaq)" points="1316,24,1388,24,1395,47.6094,1402,47.6094,1402,124,1316,124,1316,24" style="stroke: #000000; stroke-width: 2.0;"/>
        <line style="stroke: #000000; stroke-width: 2.0;" x1="1316" x2="1395" y1="47.6094" y2="47.6094"/>
        <text fill="#000000" font-family="sans-serif" font-size="14" font-weight="bold" lengthAdjust="spacingAndGlyphs" textLength="66" x="1320" y="40.5332">inception</text>
        <!--cluster inception.model-->
        <polygon fill="#FFFFFF" filter="url(#fu7dwwa339vaq)" points="156,148,275,148,282,171.6094,312,171.6094,312,248,156,248,156,148" style="stroke: #000000; stroke-width: 2.0;"/>
        <line style="stroke: #000000; stroke-width: 2.0;" x1="156" x2="282" y1="171.6094" y2="171.6094"/>
        <text fill="#000000" font-family="sans-serif" font-size="14" font-weight="bold" lengthAdjust="spacingAndGlyphs" textLength="113" x="160" y="164.5332">inception.model</text>
        <!--cluster inception.plugin-->
        <polygon fill="#FFFFFF" filter="url(#fu7dwwa339vaq)" points="336,148,456,148,463,171.6094,1061,171.6094,1061,248,336,248,336,148" style="stroke: #000000; stroke-width: 2.0;"/>
        <line style="stroke: #000000; stroke-width: 2.0;" x1="336" x2="463" y1="171.6094" y2="171.6094"/>
        <text fill="#000000" font-family="sans-serif" font-size="14" font-weight="bold" lengthAdjust="spacingAndGlyphs" textLength="114" x="340" y="164.5332">inception.plugin</text>
        <!--cluster inception.view-->
        <polygon fill="#FFFFFF" filter="url(#fu7dwwa339vaq)" points="1085,148,1194,148,1201,171.6094,1215,171.6094,1215,248,1085,248,1085,148" style="stroke: #000000; stroke-width: 2.0;"/>
        <line style="stroke: #000000; stroke-width: 2.0;" x1="1085" x2="1201" y1="171.6094" y2="171.6094"/>
        <text fill="#000000" font-family="sans-serif" font-size="14" font-weight="bold" lengthAdjust="spacingAndGlyphs" textLength="103" x="1089" y="164.5332">inception.view</text>
        <!--cluster java.io-->
        <polygon fill="#FFFFFF" filter="url(#fu7dwwa339vaq)" points="1239,148,1291,148,1298,171.6094,1456,171.6094,1456,248,1239,248,1239,148" style="stroke: #000000; stroke-width: 2.0;"/>
        <line style="stroke: #000000; stroke-width: 2.0;" x1="1239" x2="1298" y1="171.6094" y2="171.6094"/>
        <text fill="#000000" font-family="sans-serif" font-size="14" font-weight="bold" lengthAdjust="spacingAndGlyphs" textLength="46" x="1243" y="164.5332">java.io</text>
        <!--cluster java.net-->
        <polygon fill="#FFFFFF" filter="url(#fu7dwwa339vaq)" points="1480,148,1542,148,1549,171.6094,1746,171.6094,1746,248,1480,248,1480,148" style="stroke: #000000; stroke-width: 2.0;"/>
        <line style="stroke: #000000; stroke-width: 2.0;" x1="1480" x2="1549" y1="171.6094" y2="171.6094"/>
        <text fill="#000000" font-family="sans-serif" font-size="14" font-weight="bold" lengthAdjust="spacingAndGlyphs" textLength="56" x="1484" y="164.5332">java.net</text>
        <!--cluster java.util-->
        <polygon fill="#FFFFFF" filter="url(#fu7dwwa339vaq)" points="1770,148,1831,148,1838,171.6094,1892,171.6094,1892,248,1770,248,1770,148" style="stroke: #000000; stroke-width: 2.0;"/>
        <line style="stroke: #000000; stroke-width: 2.0;" x1="1770" x2="1838" y1="171.6094" y2="171.6094"/>
        <text fill="#000000" font-family="sans-serif" font-size="14" font-weight="bold" lengthAdjust="spacingAndGlyphs" textLength="55" x="1774" y="164.5332">java.util</text>
        <!--cluster javafx.application-->
        <polygon fill="#FFFFFF" filter="url(#fu7dwwa339vaq)" points="1916,148,2045,148,2052,171.6094,2055,171.6094,2055,248,1916,248,1916,148" style="stroke: #000000; stroke-width: 2.0;"/>
        <line style="stroke: #000000; stroke-width: 2.0;" x1="1916" x2="2052" y1="171.6094" y2="171.6094"/>
        <text fill="#000000" font-family="sans-serif" font-size="14" font-weight="bold" lengthAdjust="spacingAndGlyphs" textLength="123" x="1920" y="164.5332">javafx.application</text>
        <!--cluster javafx.scene-->
        <polygon fill="#FFFFFF" filter="url(#fu7dwwa339vaq)" points="2079,148,2174,148,2181,171.6094,2276,171.6094,2276,248,2079,248,2079,148" style="stroke: #000000; stroke-width: 2.0;"/>
        <line style="stroke: #000000; stroke-width: 2.0;" x1="2079" x2="2181" y1="171.6094" y2="171.6094"/>
        <text fill="#000000" font-family="sans-serif" font-size="14" font-weight="bold" lengthAdjust="spacingAndGlyphs" textLength="89" x="2083" y="164.5332">javafx.scene</text>
        <!--cluster javafx.scene.layout-->
        <polygon fill="#FFFFFF" filter="url(#fu7dwwa339vaq)" points="2300,148,2441,148,2448,171.6094,2451,171.6094,2451,248,2300,248,2300,148" style="stroke: #000000; stroke-width: 2.0;"/>
        <line style="stroke: #000000; stroke-width: 2.0;" x1="2300" x2="2448" y1="171.6094" y2="171.6094"/>
        <text fill="#000000" font-family="sans-serif" font-size="14" font-weight="bold" lengthAdjust="spacingAndGlyphs" textLength="135" x="2304" y="164.5332">javafx.scene.layout</text>
        <!--cluster javafx.stage-->
        <polygon fill="#FFFFFF" filter="url(#fu7dwwa339vaq)" points="2475,148,2566,148,2573,171.6094,2576,171.6094,2576,248,2475,248,2475,148" style="stroke: #000000; stroke-width: 2.0;"/>
        <line style="stroke: #000000; stroke-width: 2.0;" x1="2475" x2="2573" y1="171.6094" y2="171.6094"/>
        <text fill="#000000" font-family="sans-serif" font-size="14" font-weight="bold" lengthAdjust="spacingAndGlyphs" textLength="85" x="2479" y="164.5332">javafx.stage</text>
        <!--class java.lang.Override-->
        <rect fill="#FEFECE" filter="url(#fu7dwwa339vaq)" height="48" style="stroke: #A80036; stroke-width: 1.5;" width="78" x="38" y="184"/>
        <ellipse cx="53" cy="200" fill="#E3664A" rx="11" ry="11" style="stroke: #A80036; stroke-width: 1.0;"/>
        <path d="M55.3438,197.5781 L55.3438,197.0625 Q55.3438,196.2344 54.8672,195.7344 Q54.3906,195.2344 53.6406,195.2344 Q53.0469,195.2344 52.5156,195.6328 Q51.9844,196.0313 51.7188,196.6563 Q51.25,197.75 51.25,198.8594 L51.25,201.375 Q51.25,203.2969 52.1094,204.4219 Q52.6719,205.1719 53.6875,205.1719 Q54.2344,205.1719 54.6797,205.0313 Q55.125,204.8906 55.375,204.6406 Q55.625,204.3906 55.8438,204.3906 Q56.1094,204.3906 56.2969,204.5781 Q56.4844,204.7656 56.4844,205.0313 Q56.4844,205.4531 55.9063,205.8438 Q55.0781,206.4063 53.6406,206.4063 Q52.5469,206.4063 51.8281,205.9063 Q50.9063,205.2656 50.4531,204 Q50,202.7344 50,201.5 L50,198.7656 Q50,196.7813 50.9844,195.3828 Q51.9688,193.9844 53.6094,193.9844 Q54.3594,193.9844 55.0078,194.2891 Q55.6563,194.5938 56.125,195.3594 Q56.5938,196.125 56.5938,197.0625 L56.5938,201.5938 Q56.9531,201.7656 56.9531,202.1563 Q56.9531,202.4375 56.7578,202.6172 Q56.5625,202.7969 56.0938,202.7969 L55.3438,202.7969 L55.3438,202.75 Q54.9531,202.8125 54.7656,202.8125 Q53.7656,202.8125 53.0234,202.0703 Q52.2813,201.3281 52.2813,200.3281 Q52.2813,199.2656 53.1016,198.4688 Q53.9219,197.6719 55.3438,197.5781 Z M55.3438,198.8594 Q54.4531,198.9531 53.9922,199.375 Q53.5313,199.7969 53.5313,200.3438 Q53.5313,200.8281 53.9141,201.1719 Q54.2969,201.5156 54.9375,201.5156 Q55.0625,201.5156 55.3438,201.5 L55.3438,198.8594 Z "/>
        <text fill="#000000" font-family="sans-serif" font-size="12" lengthAdjust="spacingAndGlyphs" textLength="46" x="67" y="204.9102">Override</text>
        <line style="stroke: #A80036; stroke-width: 1.5;" x1="39" x2="115" y1="216" y2="216"/>
        <line style="stroke: #A80036; stroke-width: 1.5;" x1="39" x2="115" y1="224" y2="224"/>
        <!--class inception.App-->
        <rect fill="#FEFECE" filter="url(#fu7dwwa339vaq)" height="48" style="stroke: #A80036; stroke-width: 1.5;" width="53" x="1332.5" y="60"/>
        <ellipse cx="1347.5" cy="76" fill="#ADD1B2" rx="11" ry="11" style="stroke: #A80036; stroke-width: 1.0;"/>
        <path d="M1350.2656,71.875 Q1350.4219,71.6563 1350.6094,71.5469 Q1350.7969,71.4375 1351.0156,71.4375 Q1351.3906,71.4375 1351.625,71.6953 Q1351.8594,71.9531 1351.8594,72.5625 L1351.8594,74.0156 Q1351.8594,74.625 1351.625,74.8906 Q1351.3906,75.1563 1351.0156,75.1563 Q1350.6719,75.1563 1350.4688,74.9531 Q1350.2656,74.7656 1350.1563,74.25 Q1350.1094,73.8906 1349.9219,73.7031 Q1349.5938,73.3281 1348.9844,73.1094 Q1348.375,72.8906 1347.75,72.8906 Q1346.9844,72.8906 1346.3516,73.2188 Q1345.7188,73.5469 1345.2266,74.2969 Q1344.7344,75.0469 1344.7344,76.0781 L1344.7344,77.1719 Q1344.7344,78.4063 1345.625,79.2266 Q1346.5156,80.0469 1348.1094,80.0469 Q1349.0469,80.0469 1349.7031,79.7969 Q1350.0938,79.6406 1350.5156,79.2031 Q1350.7813,78.9375 1350.9297,78.8594 Q1351.0781,78.7813 1351.2813,78.7813 Q1351.6094,78.7813 1351.8672,79.0391 Q1352.125,79.2969 1352.125,79.6406 Q1352.125,79.9844 1351.7813,80.3906 Q1351.2813,80.9688 1350.4844,81.2969 Q1349.4063,81.75 1348.1094,81.75 Q1346.5938,81.75 1345.3906,81.125 Q1344.4063,80.625 1343.7188,79.5547 Q1343.0313,78.4844 1343.0313,77.2031 L1343.0313,76.0469 Q1343.0313,74.7188 1343.6484,73.5703 Q1344.2656,72.4219 1345.3594,71.8047 Q1346.4531,71.1875 1347.6875,71.1875 Q1348.4219,71.1875 1349.0703,71.3516 Q1349.7188,71.5156 1350.2656,71.875 Z "/>
        <text fill="#000000" font-family="sans-serif" font-size="12" lengthAdjust="spacingAndGlyphs" textLength="21" x="1361.5" y="80.9102">App</text>
        <line style="stroke: #A80036; stroke-width: 1.5;" x1="1333.5" x2="1384.5" y1="92" y2="92"/>
        <line style="stroke: #A80036; stroke-width: 1.5;" x1="1333.5" x2="1384.5" y1="100" y2="100"/>
        <!--class inception.model.DummyStimulus-->
        <rect fill="#FEFECE" filter="url(#fu7dwwa339vaq)" height="48" style="stroke: #A80036; stroke-width: 1.5;" width="124" x="172" y="184"/>
        <ellipse cx="187" cy="200" fill="#ADD1B2" rx="11" ry="11" style="stroke: #A80036; stroke-width: 1.0;"/>
        <path d="M189.7656,195.875 Q189.9219,195.6563 190.1094,195.5469 Q190.2969,195.4375 190.5156,195.4375 Q190.8906,195.4375 191.125,195.6953 Q191.3594,195.9531 191.3594,196.5625 L191.3594,198.0156 Q191.3594,198.625 191.125,198.8906 Q190.8906,199.1563 190.5156,199.1563 Q190.1719,199.1563 189.9688,198.9531 Q189.7656,198.7656 189.6563,198.25 Q189.6094,197.8906 189.4219,197.7031 Q189.0938,197.3281 188.4844,197.1094 Q187.875,196.8906 187.25,196.8906 Q186.4844,196.8906 185.8516,197.2188 Q185.2188,197.5469 184.7266,198.2969 Q184.2344,199.0469 184.2344,200.0781 L184.2344,201.1719 Q184.2344,202.4063 185.125,203.2266 Q186.0156,204.0469 187.6094,204.0469 Q188.5469,204.0469 189.2031,203.7969 Q189.5938,203.6406 190.0156,203.2031 Q190.2813,202.9375 190.4297,202.8594 Q190.5781,202.7813 190.7813,202.7813 Q191.1094,202.7813 191.3672,203.0391 Q191.625,203.2969 191.625,203.6406 Q191.625,203.9844 191.2813,204.3906 Q190.7813,204.9688 189.9844,205.2969 Q188.9063,205.75 187.6094,205.75 Q186.0938,205.75 184.8906,205.125 Q183.9063,204.625 183.2188,203.5547 Q182.5313,202.4844 182.5313,201.2031 L182.5313,200.0469 Q182.5313,198.7188 183.1484,197.5703 Q183.7656,196.4219 184.8594,195.8047 Q185.9531,195.1875 187.1875,195.1875 Q187.9219,195.1875 188.5703,195.3516 Q189.2188,195.5156 189.7656,195.875 Z "/>
        <text fill="#000000" font-family="sans-serif" font-size="12" lengthAdjust="spacingAndGlyphs" textLength="92" x="201" y="204.9102">DummyStimulus</text>
        <line style="stroke: #A80036; stroke-width: 1.5;" x1="173" x2="295" y1="216" y2="216"/>
        <line style="stroke: #A80036; stroke-width: 1.5;" x1="173" x2="295" y1="224" y2="224"/>
        <!--class inception.plugin.Plugin-->
        <rect fill="#FEFECE" filter="url(#fu7dwwa339vaq)" height="48" style="stroke: #A80036; stroke-width: 1.5;" width="67" x="977.5" y="184"/>
        <ellipse cx="992.5" cy="200" fill="#ADD1B2" rx="11" ry="11" style="stroke: #A80036; stroke-width: 1.0;"/>
        <path d="M995.2656,195.875 Q995.4219,195.6563 995.6094,195.5469 Q995.7969,195.4375 996.0156,195.4375 Q996.3906,195.4375 996.625,195.6953 Q996.8594,195.9531 996.8594,196.5625 L996.8594,198.0156 Q996.8594,198.625 996.625,198.8906 Q996.3906,199.1563 996.0156,199.1563 Q995.6719,199.1563 995.4688,198.9531 Q995.2656,198.7656 995.1563,198.25 Q995.1094,197.8906 994.9219,197.7031 Q994.5938,197.3281 993.9844,197.1094 Q993.375,196.8906 992.75,196.8906 Q991.9844,196.8906 991.3516,197.2188 Q990.7188,197.5469 990.2266,198.2969 Q989.7344,199.0469 989.7344,200.0781 L989.7344,201.1719 Q989.7344,202.4063 990.625,203.2266 Q991.5156,204.0469 993.1094,204.0469 Q994.0469,204.0469 994.7031,203.7969 Q995.0938,203.6406 995.5156,203.2031 Q995.7813,202.9375 995.9297,202.8594 Q996.0781,202.7813 996.2813,202.7813 Q996.6094,202.7813 996.8672,203.0391 Q997.125,203.2969 997.125,203.6406 Q997.125,203.9844 996.7813,204.3906 Q996.2813,204.9688 995.4844,205.2969 Q994.4063,205.75 993.1094,205.75 Q991.5938,205.75 990.3906,205.125 Q989.4063,204.625 988.7188,203.5547 Q988.0313,202.4844 988.0313,201.2031 L988.0313,200.0469 Q988.0313,198.7188 988.6484,197.5703 Q989.2656,196.4219 990.3594,195.8047 Q991.4531,195.1875 992.6875,195.1875 Q993.4219,195.1875 994.0703,195.3516 Q994.7188,195.5156 995.2656,195.875 Z "/>
        <text fill="#000000" font-family="sans-serif" font-size="12" lengthAdjust="spacingAndGlyphs" textLength="35" x="1006.5" y="204.9102">Plugin</text>
        <line style="stroke: #A80036; stroke-width: 1.5;" x1="978.5" x2="1043.5" y1="216" y2="216"/>
        <line style="stroke: #A80036; stroke-width: 1.5;" x1="978.5" x2="1043.5" y1="224" y2="224"/>
        <!--class inception.plugin.PluginLoaderException-->
        <rect fill="#FEFECE" filter="url(#fu7dwwa339vaq)" height="48" style="stroke: #A80036; stroke-width: 1.5;" width="159" x="783.5" y="184"/>
        <ellipse cx="798.5" cy="200" fill="#ADD1B2" rx="11" ry="11" style="stroke: #A80036; stroke-width: 1.0;"/>
        <path d="M801.2656,195.875 Q801.4219,195.6563 801.6094,195.5469 Q801.7969,195.4375 802.0156,195.4375 Q802.3906,195.4375 802.625,195.6953 Q802.8594,195.9531 802.8594,196.5625 L802.8594,198.0156 Q802.8594,198.625 802.625,198.8906 Q802.3906,199.1563 802.0156,199.1563 Q801.6719,199.1563 801.4688,198.9531 Q801.2656,198.7656 801.1563,198.25 Q801.1094,197.8906 800.9219,197.7031 Q800.5938,197.3281 799.9844,197.1094 Q799.375,196.8906 798.75,196.8906 Q797.9844,196.8906 797.3516,197.2188 Q796.7188,197.5469 796.2266,198.2969 Q795.7344,199.0469 795.7344,200.0781 L795.7344,201.1719 Q795.7344,202.4063 796.625,203.2266 Q797.5156,204.0469 799.1094,204.0469 Q800.0469,204.0469 800.7031,203.7969 Q801.0938,203.6406 801.5156,203.2031 Q801.7813,202.9375 801.9297,202.8594 Q802.0781,202.7813 802.2813,202.7813 Q802.6094,202.7813 802.8672,203.0391 Q803.125,203.2969 803.125,203.6406 Q803.125,203.9844 802.7813,204.3906 Q802.2813,204.9688 801.4844,205.2969 Q800.4063,205.75 799.1094,205.75 Q797.5938,205.75 796.3906,205.125 Q795.4063,204.625 794.7188,203.5547 Q794.0313,202.4844 794.0313,201.2031 L794.0313,200.0469 Q794.0313,198.7188 794.6484,197.5703 Q795.2656,196.4219 796.3594,195.8047 Q797.4531,195.1875 798.6875,195.1875 Q799.4219,195.1875 800.0703,195.3516 Q800.7188,195.5156 801.2656,195.875 Z "/>
        <text fill="#000000" font-family="sans-serif" font-size="12" lengthAdjust="spacingAndGlyphs" textLength="127" x="812.5" y="204.9102">PluginLoaderException</text>
        <line style="stroke: #A80036; stroke-width: 1.5;" x1="784.5" x2="941.5" y1="216" y2="216"/>
        <line style="stroke: #A80036; stroke-width: 1.5;" x1="784.5" x2="941.5" y1="224" y2="224"/>
        <!--class inception.plugin.PluginManager-->
        <rect fill="#FEFECE" filter="url(#fu7dwwa339vaq)" height="48" style="stroke: #A80036; stroke-width: 1.5;" width="115" x="633.5" y="184"/>
        <ellipse cx="648.5" cy="200" fill="#ADD1B2" rx="11" ry="11" style="stroke: #A80036; stroke-width: 1.0;"/>
        <path d="M651.2656,195.875 Q651.4219,195.6563 651.6094,195.5469 Q651.7969,195.4375 652.0156,195.4375 Q652.3906,195.4375 652.625,195.6953 Q652.8594,195.9531 652.8594,196.5625 L652.8594,198.0156 Q652.8594,198.625 652.625,198.8906 Q652.3906,199.1563 652.0156,199.1563 Q651.6719,199.1563 651.4688,198.9531 Q651.2656,198.7656 651.1563,198.25 Q651.1094,197.8906 650.9219,197.7031 Q650.5938,197.3281 649.9844,197.1094 Q649.375,196.8906 648.75,196.8906 Q647.9844,196.8906 647.3516,197.2188 Q646.7188,197.5469 646.2266,198.2969 Q645.7344,199.0469 645.7344,200.0781 L645.7344,201.1719 Q645.7344,202.4063 646.625,203.2266 Q647.5156,204.0469 649.1094,204.0469 Q650.0469,204.0469 650.7031,203.7969 Q651.0938,203.6406 651.5156,203.2031 Q651.7813,202.9375 651.9297,202.8594 Q652.0781,202.7813 652.2813,202.7813 Q652.6094,202.7813 652.8672,203.0391 Q653.125,203.2969 653.125,203.6406 Q653.125,203.9844 652.7813,204.3906 Q652.2813,204.9688 651.4844,205.2969 Q650.4063,205.75 649.1094,205.75 Q647.5938,205.75 646.3906,205.125 Q645.4063,204.625 644.7188,203.5547 Q644.0313,202.4844 644.0313,201.2031 L644.0313,200.0469 Q644.0313,198.7188 644.6484,197.5703 Q645.2656,196.4219 646.3594,195.8047 Q647.4531,195.1875 648.6875,195.1875 Q649.4219,195.1875 650.0703,195.3516 Q650.7188,195.5156 651.2656,195.875 Z "/>
        <text fill="#000000" font-family="sans-serif" font-size="12" lengthAdjust="spacingAndGlyphs" textLength="83" x="662.5" y="204.9102">PluginManager</text>
        <line style="stroke: #A80036; stroke-width: 1.5;" x1="634.5" x2="747.5" y1="216" y2="216"/>
        <line style="stroke: #A80036; stroke-width: 1.5;" x1="634.5" x2="747.5" y1="224" y2="224"/>
        <!--class inception.plugin.PluginsLoader-->
        <rect fill="#FEFECE" filter="url(#fu7dwwa339vaq)" height="48" style="stroke: #A80036; stroke-width: 1.5;" width="113" x="485.5" y="184"/>
        <ellipse cx="500.5" cy="200" fill="#ADD1B2" rx="11" ry="11" style="stroke: #A80036; stroke-width: 1.0;"/>
        <path d="M503.2656,195.875 Q503.4219,195.6563 503.6094,195.5469 Q503.7969,195.4375 504.0156,195.4375 Q504.3906,195.4375 504.625,195.6953 Q504.8594,195.9531 504.8594,196.5625 L504.8594,198.0156 Q504.8594,198.625 504.625,198.8906 Q504.3906,199.1563 504.0156,199.1563 Q503.6719,199.1563 503.4688,198.9531 Q503.2656,198.7656 503.1563,198.25 Q503.1094,197.8906 502.9219,197.7031 Q502.5938,197.3281 501.9844,197.1094 Q501.375,196.8906 500.75,196.8906 Q499.9844,196.8906 499.3516,197.2188 Q498.7188,197.5469 498.2266,198.2969 Q497.7344,199.0469 497.7344,200.0781 L497.7344,201.1719 Q497.7344,202.4063 498.625,203.2266 Q499.5156,204.0469 501.1094,204.0469 Q502.0469,204.0469 502.7031,203.7969 Q503.0938,203.6406 503.5156,203.2031 Q503.7813,202.9375 503.9297,202.8594 Q504.0781,202.7813 504.2813,202.7813 Q504.6094,202.7813 504.8672,203.0391 Q505.125,203.2969 505.125,203.6406 Q505.125,203.9844 504.7813,204.3906 Q504.2813,204.9688 503.4844,205.2969 Q502.4063,205.75 501.1094,205.75 Q499.5938,205.75 498.3906,205.125 Q497.4063,204.625 496.7188,203.5547 Q496.0313,202.4844 496.0313,201.2031 L496.0313,200.0469 Q496.0313,198.7188 496.6484,197.5703 Q497.2656,196.4219 498.3594,195.8047 Q499.4531,195.1875 500.6875,195.1875 Q501.4219,195.1875 502.0703,195.3516 Q502.7188,195.5156 503.2656,195.875 Z "/>
        <text fill="#000000" font-family="sans-serif" font-size="12" lengthAdjust="spacingAndGlyphs" textLength="81" x="514.5" y="204.9102">PluginsLoader</text>
        <line style="stroke: #A80036; stroke-width: 1.5;" x1="486.5" x2="597.5" y1="216" y2="216"/>
        <line style="stroke: #A80036; stroke-width: 1.5;" x1="486.5" x2="597.5" y1="224" y2="224"/>
        <!--class inception.plugin.VideoPlugin-->
        <rect fill="#FEFECE" filter="url(#fu7dwwa339vaq)" height="48" style="stroke: #A80036; stroke-width: 1.5;" width="98" x="352" y="184"/>
        <ellipse cx="367" cy="200" fill="#ADD1B2" rx="11" ry="11" style="stroke: #A80036; stroke-width: 1.0;"/>
        <path d="M369.7656,195.875 Q369.9219,195.6563 370.1094,195.5469 Q370.2969,195.4375 370.5156,195.4375 Q370.8906,195.4375 371.125,195.6953 Q371.3594,195.9531 371.3594,196.5625 L371.3594,198.0156 Q371.3594,198.625 371.125,198.8906 Q370.8906,199.1563 370.5156,199.1563 Q370.1719,199.1563 369.9688,198.9531 Q369.7656,198.7656 369.6563,198.25 Q369.6094,197.8906 369.4219,197.7031 Q369.0938,197.3281 368.4844,197.1094 Q367.875,196.8906 367.25,196.8906 Q366.4844,196.8906 365.8516,197.2188 Q365.2188,197.5469 364.7266,198.2969 Q364.2344,199.0469 364.2344,200.0781 L364.2344,201.1719 Q364.2344,202.4063 365.125,203.2266 Q366.0156,204.0469 367.6094,204.0469 Q368.5469,204.0469 369.2031,203.7969 Q369.5938,203.6406 370.0156,203.2031 Q370.2813,202.9375 370.4297,202.8594 Q370.5781,202.7813 370.7813,202.7813 Q371.1094,202.7813 371.3672,203.0391 Q371.625,203.2969 371.625,203.6406 Q371.625,203.9844 371.2813,204.3906 Q370.7813,204.9688 369.9844,205.2969 Q368.9063,205.75 367.6094,205.75 Q366.0938,205.75 364.8906,205.125 Q363.9063,204.625 363.2188,203.5547 Q362.5313,202.4844 362.5313,201.2031 L362.5313,200.0469 Q362.5313,198.7188 363.1484,197.5703 Q363.7656,196.4219 364.8594,195.8047 Q365.9531,195.1875 367.1875,195.1875 Q367.9219,195.1875 368.5703,195.3516 Q369.2188,195.5156 369.7656,195.875 Z "/>
        <text fill="#000000" font-family="sans-serif" font-size="12" lengthAdjust="spacingAndGlyphs" textLength="66" x="381" y="204.9102">VideoPlugin</text>
        <line style="stroke: #A80036; stroke-width: 1.5;" x1="353" x2="449" y1="216" y2="216"/>
        <line style="stroke: #A80036; stroke-width: 1.5;" x1="353" x2="449" y1="224" y2="224"/>
        <!--class inception.view.ViewService-->
        <rect fill="#FEFECE" filter="url(#fu7dwwa339vaq)" height="48" style="stroke: #A80036; stroke-width: 1.5;" width="98" x="1101" y="184"/>
        <ellipse cx="1116" cy="200" fill="#ADD1B2" rx="11" ry="11" style="stroke: #A80036; stroke-width: 1.0;"/>
        <path d="M1118.7656,195.875 Q1118.9219,195.6563 1119.1094,195.5469 Q1119.2969,195.4375 1119.5156,195.4375 Q1119.8906,195.4375 1120.125,195.6953 Q1120.3594,195.9531 1120.3594,196.5625 L1120.3594,198.0156 Q1120.3594,198.625 1120.125,198.8906 Q1119.8906,199.1563 1119.5156,199.1563 Q1119.1719,199.1563 1118.9688,198.9531 Q1118.7656,198.7656 1118.6563,198.25 Q1118.6094,197.8906 1118.4219,197.7031 Q1118.0938,197.3281 1117.4844,197.1094 Q1116.875,196.8906 1116.25,196.8906 Q1115.4844,196.8906 1114.8516,197.2188 Q1114.2188,197.5469 1113.7266,198.2969 Q1113.2344,199.0469 1113.2344,200.0781 L1113.2344,201.1719 Q1113.2344,202.4063 1114.125,203.2266 Q1115.0156,204.0469 1116.6094,204.0469 Q1117.5469,204.0469 1118.2031,203.7969 Q1118.5938,203.6406 1119.0156,203.2031 Q1119.2813,202.9375 1119.4297,202.8594 Q1119.5781,202.7813 1119.7813,202.7813 Q1120.1094,202.7813 1120.3672,203.0391 Q1120.625,203.2969 1120.625,203.6406 Q1120.625,203.9844 1120.2813,204.3906 Q1119.7813,204.9688 1118.9844,205.2969 Q1117.9063,205.75 1116.6094,205.75 Q1115.0938,205.75 1113.8906,205.125 Q1112.9063,204.625 1112.2188,203.5547 Q1111.5313,202.4844 1111.5313,201.2031 L1111.5313,200.0469 Q1111.5313,198.7188 1112.1484,197.5703 Q1112.7656,196.4219 1113.8594,195.8047 Q1114.9531,195.1875 1116.1875,195.1875 Q1116.9219,195.1875 1117.5703,195.3516 Q1118.2188,195.5156 1118.7656,195.875 Z "/>
        <text fill="#000000" font-family="sans-serif" font-size="12" lengthAdjust="spacingAndGlyphs" textLength="66" x="1130" y="204.9102">ViewService</text>
        <line style="stroke: #A80036; stroke-width: 1.5;" x1="1102" x2="1198" y1="216" y2="216"/>
        <line style="stroke: #A80036; stroke-width: 1.5;" x1="1102" x2="1198" y1="224" y2="224"/>
        <!--class java.io.File-->
        <rect fill="#FEFECE" filter="url(#fu7dwwa339vaq)" height="48" style="stroke: #A80036; stroke-width: 1.5;" width="52" x="1388" y="184"/>
        <ellipse cx="1403" cy="200" fill="#ADD1B2" rx="11" ry="11" style="stroke: #A80036; stroke-width: 1.0;"/>
        <path d="M1405.7656,195.875 Q1405.9219,195.6563 1406.1094,195.5469 Q1406.2969,195.4375 1406.5156,195.4375 Q1406.8906,195.4375 1407.125,195.6953 Q1407.3594,195.9531 1407.3594,196.5625 L1407.3594,198.0156 Q1407.3594,198.625 1407.125,198.8906 Q1406.8906,199.1563 1406.5156,199.1563 Q1406.1719,199.1563 1405.9688,198.9531 Q1405.7656,198.7656 1405.6563,198.25 Q1405.6094,197.8906 1405.4219,197.7031 Q1405.0938,197.3281 1404.4844,197.1094 Q1403.875,196.8906 1403.25,196.8906 Q1402.4844,196.8906 1401.8516,197.2188 Q1401.2188,197.5469 1400.7266,198.2969 Q1400.2344,199.0469 1400.2344,200.0781 L1400.2344,201.1719 Q1400.2344,202.4063 1401.125,203.2266 Q1402.0156,204.0469 1403.6094,204.0469 Q1404.5469,204.0469 1405.2031,203.7969 Q1405.5938,203.6406 1406.0156,203.2031 Q1406.2813,202.9375 1406.4297,202.8594 Q1406.5781,202.7813 1406.7813,202.7813 Q1407.1094,202.7813 1407.3672,203.0391 Q1407.625,203.2969 1407.625,203.6406 Q1407.625,203.9844 1407.2813,204.3906 Q1406.7813,204.9688 1405.9844,205.2969 Q1404.9063,205.75 1403.6094,205.75 Q1402.0938,205.75 1400.8906,205.125 Q1399.9063,204.625 1399.2188,203.5547 Q1398.5313,202.4844 1398.5313,201.2031 L1398.5313,200.0469 Q1398.5313,198.7188 1399.1484,197.5703 Q1399.7656,196.4219 1400.8594,195.8047 Q1401.9531,195.1875 1403.1875,195.1875 Q1403.9219,195.1875 1404.5703,195.3516 Q1405.2188,195.5156 1405.7656,195.875 Z "/>
        <text fill="#000000" font-family="sans-serif" font-size="12" lengthAdjust="spacingAndGlyphs" textLength="20" x="1417" y="204.9102">File</text>
        <line style="stroke: #A80036; stroke-width: 1.5;" x1="1389" x2="1439" y1="216" y2="216"/>
        <line style="stroke: #A80036; stroke-width: 1.5;" x1="1389" x2="1439" y1="224" y2="224"/>
        <!--class java.io.IOException-->
        <rect fill="#FEFECE" filter="url(#fu7dwwa339vaq)" height="48" style="stroke: #A80036; stroke-width: 1.5;" width="97" x="1255.5" y="184"/>
        <ellipse cx="1270.5" cy="200" fill="#ADD1B2" rx="11" ry="11" style="stroke: #A80036; stroke-width: 1.0;"/>
        <path d="M1273.2656,195.875 Q1273.4219,195.6563 1273.6094,195.5469 Q1273.7969,195.4375 1274.0156,195.4375 Q1274.3906,195.4375 1274.625,195.6953 Q1274.8594,195.9531 1274.8594,196.5625 L1274.8594,198.0156 Q1274.8594,198.625 1274.625,198.8906 Q1274.3906,199.1563 1274.0156,199.1563 Q1273.6719,199.1563 1273.4688,198.9531 Q1273.2656,198.7656 1273.1563,198.25 Q1273.1094,197.8906 1272.9219,197.7031 Q1272.5938,197.3281 1271.9844,197.1094 Q1271.375,196.8906 1270.75,196.8906 Q1269.9844,196.8906 1269.3516,197.2188 Q1268.7188,197.5469 1268.2266,198.2969 Q1267.7344,199.0469 1267.7344,200.0781 L1267.7344,201.1719 Q1267.7344,202.4063 1268.625,203.2266 Q1269.5156,204.0469 1271.1094,204.0469 Q1272.0469,204.0469 1272.7031,203.7969 Q1273.0938,203.6406 1273.5156,203.2031 Q1273.7813,202.9375 1273.9297,202.8594 Q1274.0781,202.7813 1274.2813,202.7813 Q1274.6094,202.7813 1274.8672,203.0391 Q1275.125,203.2969 1275.125,203.6406 Q1275.125,203.9844 1274.7813,204.3906 Q1274.2813,204.9688 1273.4844,205.2969 Q1272.4063,205.75 1271.1094,205.75 Q1269.5938,205.75 1268.3906,205.125 Q1267.4063,204.625 1266.7188,203.5547 Q1266.0313,202.4844 1266.0313,201.2031 L1266.0313,200.0469 Q1266.0313,198.7188 1266.6484,197.5703 Q1267.2656,196.4219 1268.3594,195.8047 Q1269.4531,195.1875 1270.6875,195.1875 Q1271.4219,195.1875 1272.0703,195.3516 Q1272.7188,195.5156 1273.2656,195.875 Z "/>
        <text fill="#000000" font-family="sans-serif" font-size="12" lengthAdjust="spacingAndGlyphs" textLength="65" x="1284.5" y="204.9102">IOException</text>
        <line style="stroke: #A80036; stroke-width: 1.5;" x1="1256.5" x2="1351.5" y1="216" y2="216"/>
        <line style="stroke: #A80036; stroke-width: 1.5;" x1="1256.5" x2="1351.5" y1="224" y2="224"/>
        <!--class java.net.URISyntaxException-->
        <rect fill="#FEFECE" filter="url(#fu7dwwa339vaq)" height="48" style="stroke: #A80036; stroke-width: 1.5;" width="141" x="1588.5" y="184"/>
        <ellipse cx="1603.5" cy="200" fill="#ADD1B2" rx="11" ry="11" style="stroke: #A80036; stroke-width: 1.0;"/>
        <path d="M1606.2656,195.875 Q1606.4219,195.6563 1606.6094,195.5469 Q1606.7969,195.4375 1607.0156,195.4375 Q1607.3906,195.4375 1607.625,195.6953 Q1607.8594,195.9531 1607.8594,196.5625 L1607.8594,198.0156 Q1607.8594,198.625 1607.625,198.8906 Q1607.3906,199.1563 1607.0156,199.1563 Q1606.6719,199.1563 1606.4688,198.9531 Q1606.2656,198.7656 1606.1563,198.25 Q1606.1094,197.8906 1605.9219,197.7031 Q1605.5938,197.3281 1604.9844,197.1094 Q1604.375,196.8906 1603.75,196.8906 Q1602.9844,196.8906 1602.3516,197.2188 Q1601.7188,197.5469 1601.2266,198.2969 Q1600.7344,199.0469 1600.7344,200.0781 L1600.7344,201.1719 Q1600.7344,202.4063 1601.625,203.2266 Q1602.5156,204.0469 1604.1094,204.0469 Q1605.0469,204.0469 1605.7031,203.7969 Q1606.0938,203.6406 1606.5156,203.2031 Q1606.7813,202.9375 1606.9297,202.8594 Q1607.0781,202.7813 1607.2813,202.7813 Q1607.6094,202.7813 1607.8672,203.0391 Q1608.125,203.2969 1608.125,203.6406 Q1608.125,203.9844 1607.7813,204.3906 Q1607.2813,204.9688 1606.4844,205.2969 Q1605.4063,205.75 1604.1094,205.75 Q1602.5938,205.75 1601.3906,205.125 Q1600.4063,204.625 1599.7188,203.5547 Q1599.0313,202.4844 1599.0313,201.2031 L1599.0313,200.0469 Q1599.0313,198.7188 1599.6484,197.5703 Q1600.2656,196.4219 1601.3594,195.8047 Q1602.4531,195.1875 1603.6875,195.1875 Q1604.4219,195.1875 1605.0703,195.3516 Q1605.7188,195.5156 1606.2656,195.875 Z "/>
        <text fill="#000000" font-family="sans-serif" font-size="12" lengthAdjust="spacingAndGlyphs" textLength="109" x="1617.5" y="204.9102">URISyntaxException</text>
        <line style="stroke: #A80036; stroke-width: 1.5;" x1="1589.5" x2="1728.5" y1="216" y2="216"/>
        <line style="stroke: #A80036; stroke-width: 1.5;" x1="1589.5" x2="1728.5" y1="224" y2="224"/>
        <!--class java.net.URL-->
        <rect fill="#FEFECE" filter="url(#fu7dwwa339vaq)" height="48" style="stroke: #A80036; stroke-width: 1.5;" width="57" x="1496.5" y="184"/>
        <ellipse cx="1511.5" cy="200" fill="#ADD1B2" rx="11" ry="11" style="stroke: #A80036; stroke-width: 1.0;"/>
        <path d="M1514.2656,195.875 Q1514.4219,195.6563 1514.6094,195.5469 Q1514.7969,195.4375 1515.0156,195.4375 Q1515.3906,195.4375 1515.625,195.6953 Q1515.8594,195.9531 1515.8594,196.5625 L1515.8594,198.0156 Q1515.8594,198.625 1515.625,198.8906 Q1515.3906,199.1563 1515.0156,199.1563 Q1514.6719,199.1563 1514.4688,198.9531 Q1514.2656,198.7656 1514.1563,198.25 Q1514.1094,197.8906 1513.9219,197.7031 Q1513.5938,197.3281 1512.9844,197.1094 Q1512.375,196.8906 1511.75,196.8906 Q1510.9844,196.8906 1510.3516,197.2188 Q1509.7188,197.5469 1509.2266,198.2969 Q1508.7344,199.0469 1508.7344,200.0781 L1508.7344,201.1719 Q1508.7344,202.4063 1509.625,203.2266 Q1510.5156,204.0469 1512.1094,204.0469 Q1513.0469,204.0469 1513.7031,203.7969 Q1514.0938,203.6406 1514.5156,203.2031 Q1514.7813,202.9375 1514.9297,202.8594 Q1515.0781,202.7813 1515.2813,202.7813 Q1515.6094,202.7813 1515.8672,203.0391 Q1516.125,203.2969 1516.125,203.6406 Q1516.125,203.9844 1515.7813,204.3906 Q1515.2813,204.9688 1514.4844,205.2969 Q1513.4063,205.75 1512.1094,205.75 Q1510.5938,205.75 1509.3906,205.125 Q1508.4063,204.625 1507.7188,203.5547 Q1507.0313,202.4844 1507.0313,201.2031 L1507.0313,200.0469 Q1507.0313,198.7188 1507.6484,197.5703 Q1508.2656,196.4219 1509.3594,195.8047 Q1510.4531,195.1875 1511.6875,195.1875 Q1512.4219,195.1875 1513.0703,195.3516 Q1513.7188,195.5156 1514.2656,195.875 Z "/>
        <text fill="#000000" font-family="sans-serif" font-size="12" lengthAdjust="spacingAndGlyphs" textLength="25" x="1525.5" y="204.9102">URL</text>
        <line style="stroke: #A80036; stroke-width: 1.5;" x1="1497.5" x2="1552.5" y1="216" y2="216"/>
        <line style="stroke: #A80036; stroke-width: 1.5;" x1="1497.5" x2="1552.5" y1="224" y2="224"/>
        <!--class java.util.Properties-->
        <rect fill="#FEFECE" filter="url(#fu7dwwa339vaq)" height="48" style="stroke: #A80036; stroke-width: 1.5;" width="89" x="1786.5" y="184"/>
        <ellipse cx="1801.5" cy="200" fill="#ADD1B2" rx="11" ry="11" style="stroke: #A80036; stroke-width: 1.0;"/>
        <path d="M1804.2656,195.875 Q1804.4219,195.6563 1804.6094,195.5469 Q1804.7969,195.4375 1805.0156,195.4375 Q1805.3906,195.4375 1805.625,195.6953 Q1805.8594,195.9531 1805.8594,196.5625 L1805.8594,198.0156 Q1805.8594,198.625 1805.625,198.8906 Q1805.3906,199.1563 1805.0156,199.1563 Q1804.6719,199.1563 1804.4688,198.9531 Q1804.2656,198.7656 1804.1563,198.25 Q1804.1094,197.8906 1803.9219,197.7031 Q1803.5938,197.3281 1802.9844,197.1094 Q1802.375,196.8906 1801.75,196.8906 Q1800.9844,196.8906 1800.3516,197.2188 Q1799.7188,197.5469 1799.2266,198.2969 Q1798.7344,199.0469 1798.7344,200.0781 L1798.7344,201.1719 Q1798.7344,202.4063 1799.625,203.2266 Q1800.5156,204.0469 1802.1094,204.0469 Q1803.0469,204.0469 1803.7031,203.7969 Q1804.0938,203.6406 1804.5156,203.2031 Q1804.7813,202.9375 1804.9297,202.8594 Q1805.0781,202.7813 1805.2813,202.7813 Q1805.6094,202.7813 1805.8672,203.0391 Q1806.125,203.2969 1806.125,203.6406 Q1806.125,203.9844 1805.7813,204.3906 Q1805.2813,204.9688 1804.4844,205.2969 Q1803.4063,205.75 1802.1094,205.75 Q1800.5938,205.75 1799.3906,205.125 Q1798.4063,204.625 1797.7188,203.5547 Q1797.0313,202.4844 1797.0313,201.2031 L1797.0313,200.0469 Q1797.0313,198.7188 1797.6484,197.5703 Q1798.2656,196.4219 1799.3594,195.8047 Q1800.4531,195.1875 1801.6875,195.1875 Q1802.4219,195.1875 1803.0703,195.3516 Q1803.7188,195.5156 1804.2656,195.875 Z "/>
        <text fill="#000000" font-family="sans-serif" font-size="12" lengthAdjust="spacingAndGlyphs" textLength="57" x="1815.5" y="204.9102">Properties</text>
        <line style="stroke: #A80036; stroke-width: 1.5;" x1="1787.5" x2="1874.5" y1="216" y2="216"/>
        <line style="stroke: #A80036; stroke-width: 1.5;" x1="1787.5" x2="1874.5" y1="224" y2="224"/>
        <!--class javafx.application.Application-->
        <rect fill="#FEFECE" filter="url(#fu7dwwa339vaq)" height="48" style="stroke: #A80036; stroke-width: 1.5;" width="92" x="1932" y="184"/>
        <ellipse cx="1947" cy="200" fill="#ADD1B2" rx="11" ry="11" style="stroke: #A80036; stroke-width: 1.0;"/>
        <path d="M1949.7656,195.875 Q1949.9219,195.6563 1950.1094,195.5469 Q1950.2969,195.4375 1950.5156,195.4375 Q1950.8906,195.4375 1951.125,195.6953 Q1951.3594,195.9531 1951.3594,196.5625 L1951.3594,198.0156 Q1951.3594,198.625 1951.125,198.8906 Q1950.8906,199.1563 1950.5156,199.1563 Q1950.1719,199.1563 1949.9688,198.9531 Q1949.7656,198.7656 1949.6563,198.25 Q1949.6094,197.8906 1949.4219,197.7031 Q1949.0938,197.3281 1948.4844,197.1094 Q1947.875,196.8906 1947.25,196.8906 Q1946.4844,196.8906 1945.8516,197.2188 Q1945.2188,197.5469 1944.7266,198.2969 Q1944.2344,199.0469 1944.2344,200.0781 L1944.2344,201.1719 Q1944.2344,202.4063 1945.125,203.2266 Q1946.0156,204.0469 1947.6094,204.0469 Q1948.5469,204.0469 1949.2031,203.7969 Q1949.5938,203.6406 1950.0156,203.2031 Q1950.2813,202.9375 1950.4297,202.8594 Q1950.5781,202.7813 1950.7813,202.7813 Q1951.1094,202.7813 1951.3672,203.0391 Q1951.625,203.2969 1951.625,203.6406 Q1951.625,203.9844 1951.2813,204.3906 Q1950.7813,204.9688 1949.9844,205.2969 Q1948.9063,205.75 1947.6094,205.75 Q1946.0938,205.75 1944.8906,205.125 Q1943.9063,204.625 1943.2188,203.5547 Q1942.5313,202.4844 1942.5313,201.2031 L1942.5313,200.0469 Q1942.5313,198.7188 1943.1484,197.5703 Q1943.7656,196.4219 1944.8594,195.8047 Q1945.9531,195.1875 1947.1875,195.1875 Q1947.9219,195.1875 1948.5703,195.3516 Q1949.2188,195.5156 1949.7656,195.875 Z "/>
        <text fill="#000000" font-family="sans-serif" font-size="12" lengthAdjust="spacingAndGlyphs" textLength="60" x="1961" y="204.9102">Application</text>
        <line style="stroke: #A80036; stroke-width: 1.5;" x1="1933" x2="2023" y1="216" y2="216"/>
        <line style="stroke: #A80036; stroke-width: 1.5;" x1="1933" x2="2023" y1="224" y2="224"/>
        <!--class javafx.scene.Node-->
        <rect fill="#FEFECE" filter="url(#fu7dwwa339vaq)" height="48" style="stroke: #A80036; stroke-width: 1.5;" width="62" x="2198" y="184"/>
        <ellipse cx="2213" cy="200" fill="#ADD1B2" rx="11" ry="11" style="stroke: #A80036; stroke-width: 1.0;"/>
        <path d="M2215.7656,195.875 Q2215.9219,195.6563 2216.1094,195.5469 Q2216.2969,195.4375 2216.5156,195.4375 Q2216.8906,195.4375 2217.125,195.6953 Q2217.3594,195.9531 2217.3594,196.5625 L2217.3594,198.0156 Q2217.3594,198.625 2217.125,198.8906 Q2216.8906,199.1563 2216.5156,199.1563 Q2216.1719,199.1563 2215.9688,198.9531 Q2215.7656,198.7656 2215.6563,198.25 Q2215.6094,197.8906 2215.4219,197.7031 Q2215.0938,197.3281 2214.4844,197.1094 Q2213.875,196.8906 2213.25,196.8906 Q2212.4844,196.8906 2211.8516,197.2188 Q2211.2188,197.5469 2210.7266,198.2969 Q2210.2344,199.0469 2210.2344,200.0781 L2210.2344,201.1719 Q2210.2344,202.4063 2211.125,203.2266 Q2212.0156,204.0469 2213.6094,204.0469 Q2214.5469,204.0469 2215.2031,203.7969 Q2215.5938,203.6406 2216.0156,203.2031 Q2216.2813,202.9375 2216.4297,202.8594 Q2216.5781,202.7813 2216.7813,202.7813 Q2217.1094,202.7813 2217.3672,203.0391 Q2217.625,203.2969 2217.625,203.6406 Q2217.625,203.9844 2217.2813,204.3906 Q2216.7813,204.9688 2215.9844,205.2969 Q2214.9063,205.75 2213.6094,205.75 Q2212.0938,205.75 2210.8906,205.125 Q2209.9063,204.625 2209.2188,203.5547 Q2208.5313,202.4844 2208.5313,201.2031 L2208.5313,200.0469 Q2208.5313,198.7188 2209.1484,197.5703 Q2209.7656,196.4219 2210.8594,195.8047 Q2211.9531,195.1875 2213.1875,195.1875 Q2213.9219,195.1875 2214.5703,195.3516 Q2215.2188,195.5156 2215.7656,195.875 Z "/>
        <text fill="#000000" font-family="sans-serif" font-size="12" lengthAdjust="spacingAndGlyphs" textLength="30" x="2227" y="204.9102">Node</text>
        <line style="stroke: #A80036; stroke-width: 1.5;" x1="2199" x2="2259" y1="216" y2="216"/>
        <line style="stroke: #A80036; stroke-width: 1.5;" x1="2199" x2="2259" y1="224" y2="224"/>
        <!--class javafx.scene.Scene-->
        <rect fill="#FEFECE" filter="url(#fu7dwwa339vaq)" height="48" style="stroke: #A80036; stroke-width: 1.5;" width="67" x="2095.5" y="184"/>
        <ellipse cx="2110.5" cy="200" fill="#ADD1B2" rx="11" ry="11" style="stroke: #A80036; stroke-width: 1.0;"/>
        <path d="M2113.2656,195.875 Q2113.4219,195.6563 2113.6094,195.5469 Q2113.7969,195.4375 2114.0156,195.4375 Q2114.3906,195.4375 2114.625,195.6953 Q2114.8594,195.9531 2114.8594,196.5625 L2114.8594,198.0156 Q2114.8594,198.625 2114.625,198.8906 Q2114.3906,199.1563 2114.0156,199.1563 Q2113.6719,199.1563 2113.4688,198.9531 Q2113.2656,198.7656 2113.1563,198.25 Q2113.1094,197.8906 2112.9219,197.7031 Q2112.5938,197.3281 2111.9844,197.1094 Q2111.375,196.8906 2110.75,196.8906 Q2109.9844,196.8906 2109.3516,197.2188 Q2108.7188,197.5469 2108.2266,198.2969 Q2107.7344,199.0469 2107.7344,200.0781 L2107.7344,201.1719 Q2107.7344,202.4063 2108.625,203.2266 Q2109.5156,204.0469 2111.1094,204.0469 Q2112.0469,204.0469 2112.7031,203.7969 Q2113.0938,203.6406 2113.5156,203.2031 Q2113.7813,202.9375 2113.9297,202.8594 Q2114.0781,202.7813 2114.2813,202.7813 Q2114.6094,202.7813 2114.8672,203.0391 Q2115.125,203.2969 2115.125,203.6406 Q2115.125,203.9844 2114.7813,204.3906 Q2114.2813,204.9688 2113.4844,205.2969 Q2112.4063,205.75 2111.1094,205.75 Q2109.5938,205.75 2108.3906,205.125 Q2107.4063,204.625 2106.7188,203.5547 Q2106.0313,202.4844 2106.0313,201.2031 L2106.0313,200.0469 Q2106.0313,198.7188 2106.6484,197.5703 Q2107.2656,196.4219 2108.3594,195.8047 Q2109.4531,195.1875 2110.6875,195.1875 Q2111.4219,195.1875 2112.0703,195.3516 Q2112.7188,195.5156 2113.2656,195.875 Z "/>
        <text fill="#000000" font-family="sans-serif" font-size="12" lengthAdjust="spacingAndGlyphs" textLength="35" x="2124.5" y="204.9102">Scene</text>
        <line style="stroke: #A80036; stroke-width: 1.5;" x1="2096.5" x2="2161.5" y1="216" y2="216"/>
        <line style="stroke: #A80036; stroke-width: 1.5;" x1="2096.5" x2="2161.5" y1="224" y2="224"/>
        <!--class javafx.scene.layout.AnchorPane-->
        <rect fill="#FEFECE" filter="url(#fu7dwwa339vaq)" height="48" style="stroke: #A80036; stroke-width: 1.5;" width="99" x="2316.5" y="184"/>
        <ellipse cx="2331.5" cy="200" fill="#ADD1B2" rx="11" ry="11" style="stroke: #A80036; stroke-width: 1.0;"/>
        <path d="M2334.2656,195.875 Q2334.4219,195.6563 2334.6094,195.5469 Q2334.7969,195.4375 2335.0156,195.4375 Q2335.3906,195.4375 2335.625,195.6953 Q2335.8594,195.9531 2335.8594,196.5625 L2335.8594,198.0156 Q2335.8594,198.625 2335.625,198.8906 Q2335.3906,199.1563 2335.0156,199.1563 Q2334.6719,199.1563 2334.4688,198.9531 Q2334.2656,198.7656 2334.1563,198.25 Q2334.1094,197.8906 2333.9219,197.7031 Q2333.5938,197.3281 2332.9844,197.1094 Q2332.375,196.8906 2331.75,196.8906 Q2330.9844,196.8906 2330.3516,197.2188 Q2329.7188,197.5469 2329.2266,198.2969 Q2328.7344,199.0469 2328.7344,200.0781 L2328.7344,201.1719 Q2328.7344,202.4063 2329.625,203.2266 Q2330.5156,204.0469 2332.1094,204.0469 Q2333.0469,204.0469 2333.7031,203.7969 Q2334.0938,203.6406 2334.5156,203.2031 Q2334.7813,202.9375 2334.9297,202.8594 Q2335.0781,202.7813 2335.2813,202.7813 Q2335.6094,202.7813 2335.8672,203.0391 Q2336.125,203.2969 2336.125,203.6406 Q2336.125,203.9844 2335.7813,204.3906 Q2335.2813,204.9688 2334.4844,205.2969 Q2333.4063,205.75 2332.1094,205.75 Q2330.5938,205.75 2329.3906,205.125 Q2328.4063,204.625 2327.7188,203.5547 Q2327.0313,202.4844 2327.0313,201.2031 L2327.0313,200.0469 Q2327.0313,198.7188 2327.6484,197.5703 Q2328.2656,196.4219 2329.3594,195.8047 Q2330.4531,195.1875 2331.6875,195.1875 Q2332.4219,195.1875 2333.0703,195.3516 Q2333.7188,195.5156 2334.2656,195.875 Z "/>
        <text fill="#000000" font-family="sans-serif" font-size="12" lengthAdjust="spacingAndGlyphs" textLength="67" x="2345.5" y="204.9102">AnchorPane</text>
        <line style="stroke: #A80036; stroke-width: 1.5;" x1="2317.5" x2="2414.5" y1="216" y2="216"/>
        <line style="stroke: #A80036; stroke-width: 1.5;" x1="2317.5" x2="2414.5" y1="224" y2="224"/>
        <!--class javafx.stage.Stage-->
        <rect fill="#FEFECE" filter="url(#fu7dwwa339vaq)" height="48" style="stroke: #A80036; stroke-width: 1.5;" width="64" x="2491" y="184"/>
        <ellipse cx="2506" cy="200" fill="#ADD1B2" rx="11" ry="11" style="stroke: #A80036; stroke-width: 1.0;"/>
        <path d="M2508.7656,195.875 Q2508.9219,195.6563 2509.1094,195.5469 Q2509.2969,195.4375 2509.5156,195.4375 Q2509.8906,195.4375 2510.125,195.6953 Q2510.3594,195.9531 2510.3594,196.5625 L2510.3594,198.0156 Q2510.3594,198.625 2510.125,198.8906 Q2509.8906,199.1563 2509.5156,199.1563 Q2509.1719,199.1563 2508.9688,198.9531 Q2508.7656,198.7656 2508.6563,198.25 Q2508.6094,197.8906 2508.4219,197.7031 Q2508.0938,197.3281 2507.4844,197.1094 Q2506.875,196.8906 2506.25,196.8906 Q2505.4844,196.8906 2504.8516,197.2188 Q2504.2188,197.5469 2503.7266,198.2969 Q2503.2344,199.0469 2503.2344,200.0781 L2503.2344,201.1719 Q2503.2344,202.4063 2504.125,203.2266 Q2505.0156,204.0469 2506.6094,204.0469 Q2507.5469,204.0469 2508.2031,203.7969 Q2508.5938,203.6406 2509.0156,203.2031 Q2509.2813,202.9375 2509.4297,202.8594 Q2509.5781,202.7813 2509.7813,202.7813 Q2510.1094,202.7813 2510.3672,203.0391 Q2510.625,203.2969 2510.625,203.6406 Q2510.625,203.9844 2510.2813,204.3906 Q2509.7813,204.9688 2508.9844,205.2969 Q2507.9063,205.75 2506.6094,205.75 Q2505.0938,205.75 2503.8906,205.125 Q2502.9063,204.625 2502.2188,203.5547 Q2501.5313,202.4844 2501.5313,201.2031 L2501.5313,200.0469 Q2501.5313,198.7188 2502.1484,197.5703 Q2502.7656,196.4219 2503.8594,195.8047 Q2504.9531,195.1875 2506.1875,195.1875 Q2506.9219,195.1875 2507.5703,195.3516 Q2508.2188,195.5156 2508.7656,195.875 Z "/>
        <text fill="#000000" font-family="sans-serif" font-size="12" lengthAdjust="spacingAndGlyphs" textLength="32" x="2520" y="204.9102">Stage</text>
        <line style="stroke: #A80036; stroke-width: 1.5;" x1="2492" x2="2554" y1="216" y2="216"/>
        <line style="stroke: #A80036; stroke-width: 1.5;" x1="2492" x2="2554" y1="224" y2="224"/>
        <path d="M1332.24,85.19 C1165.17,86.511 268.856,95.637 156,140 C134.399,148.491 114.499,165.45 100.0752,180.1803 " fill="none" style="stroke: #A80036; stroke-width: 1.0; stroke-dasharray: 7.0,7.0;"/>
        <polygon fill="#A80036" points="96.5284,183.8707,105.6488,180.1533,99.993,180.2657,99.8807,174.6099,96.5284,183.8707" style="stroke: #A80036; stroke-width: 1.0;"/>
        <path d="M1332.49,85.599 C1181.49,89.12 433.16,108.077 336,140 C309.802,148.608 283.877,165.7818 264.719,180.5865 " fill="none" style="stroke: #A80036; stroke-width: 1.0; stroke-dasharray: 7.0,7.0;"/>
        <polygon fill="#A80036" points="260.491,183.9002,270.0421,181.4967,264.4263,180.8159,265.1072,175.2001,260.491,183.9002" style="stroke: #A80036; stroke-width: 1.0;"/>
        <path d="M1332.18,85.713 C1281.3,88.043 1168.4,97.956 1085,140 C1065.62,149.77 1047.49,166.0134 1034.03,180.0596 " fill="none" style="stroke: #A80036; stroke-width: 1.0; stroke-dasharray: 7.0,7.0;"/>
        <polygon fill="#A80036" points="1030.36,183.9559,1039.4485,180.1614,1033.794,180.3216,1033.6337,174.667,1030.36,183.9559" style="stroke: #A80036; stroke-width: 1.0;"/>
        <path d="M1332.27,84.486 C1266.53,84.1 1092.63,88.446 960,140 C935.525,149.513 911.22,166.319 893.06,180.7184 " fill="none" style="stroke: #A80036; stroke-width: 1.0; stroke-dasharray: 7.0,7.0;"/>
        <polygon fill="#A80036" points="889.048,183.94,898.5697,181.4227,892.9463,180.8089,893.56,175.1855,889.048,183.94" style="stroke: #A80036; stroke-width: 1.0;"/>
        <path d="M1332.27,85.277 C1230.8,86.662 869.915,94.736 766,140 C745.662,148.859 727.038,165.4278 713.436,179.8715 " fill="none" style="stroke: #A80036; stroke-width: 1.0; stroke-dasharray: 7.0,7.0;"/>
        <polygon fill="#A80036" points="709.735,183.8809,718.7785,179.9803,713.1262,180.2067,712.8998,174.5544,709.735,183.8809" style="stroke: #A80036; stroke-width: 1.0;"/>
        <path d="M1332.15,84.678 C1215.01,83.622 748.711,83.132 616,140 C595.76,148.673 577.383,165.2404 564.005,179.73 " fill="none" style="stroke: #A80036; stroke-width: 1.0; stroke-dasharray: 7.0,7.0;"/>
        <polygon fill="#A80036" points="560.367,183.7534,569.3703,179.7608,563.7206,180.0448,563.4366,174.3951,560.367,183.7534" style="stroke: #A80036; stroke-width: 1.0;"/>
        <path d="M1332.25,85.527 C1192.37,88.431 548.535,103.695 468,140 C448.946,148.59 432.302,165.1566 420.369,179.6666 " fill="none" style="stroke: #A80036; stroke-width: 1.0; stroke-dasharray: 7.0,7.0;"/>
        <polygon fill="#A80036" points="417.13,183.6963,425.8861,179.1874,420.2624,179.7991,419.6507,174.1755,417.13,183.6963" style="stroke: #A80036; stroke-width: 1.0;"/>
        <path d="M1332.43,95.241 C1307.55,105.276 1269.71,121.695 1239,140 C1218.94,151.959 1198,167.5449 1181.47,180.6746 " fill="none" style="stroke: #A80036; stroke-width: 1.0; stroke-dasharray: 7.0,7.0;"/>
        <polygon fill="#A80036" points="1177.37,183.956,1186.8947,181.4501,1181.272,180.8296,1181.8925,175.2069,1177.37,183.956" style="stroke: #A80036; stroke-width: 1.0;"/>
        <path d="M1369.47,108.234 C1378.57,128.416 1391.77,157.691 1401.44,179.1297 " fill="none" style="stroke: #A80036; stroke-width: 1.0; stroke-dasharray: 7.0,7.0;"/>
        <polygon fill="#A80036" points="1403.56,183.8521,1403.5067,174.0034,1401.5046,179.2941,1396.2139,177.292,1403.56,183.8521" style="stroke: #A80036; stroke-width: 1.0;"/>
        <path d="M1348.53,108.234 C1339.43,128.416 1326.23,157.691 1316.56,179.1297 " fill="none" style="stroke: #A80036; stroke-width: 1.0; stroke-dasharray: 7.0,7.0;"/>
        <polygon fill="#A80036" points="1314.44,183.8521,1321.7861,177.292,1316.4954,179.2941,1314.4933,174.0034,1314.44,183.8521" style="stroke: #A80036; stroke-width: 1.0;"/>
        <path d="M1385.62,88.448 C1426.97,94.552 1508.41,109.59 1571,140 C1592.49,150.444 1613.89,166.5677 1630.2,180.3808 " fill="none" style="stroke: #A80036; stroke-width: 1.0; stroke-dasharray: 7.0,7.0;"/>
        <polygon fill="#A80036" points="1634.23,183.838,1629.9844,174.9512,1630.428,180.5907,1624.7886,181.0344,1634.23,183.838" style="stroke: #A80036; stroke-width: 1.0;"/>
        <path d="M1385.65,97.769 C1405.79,107.967 1433.69,123.279 1456,140 C1471.74,151.799 1487.61,166.928 1500.15,179.823 " fill="none" style="stroke: #A80036; stroke-width: 1.0; stroke-dasharray: 7.0,7.0;"/>
        <polygon fill="#A80036" points="1503.93,183.747,1500.5643,174.4911,1500.4601,180.147,1494.8042,180.0429,1503.93,183.747" style="stroke: #A80036; stroke-width: 1.0;"/>
        <path d="M1385.65,86.974 C1462.04,92.915 1680.49,111.966 1746,140 C1767.98,149.405 1789.1,166.0081 1804.8,180.3331 " fill="none" style="stroke: #A80036; stroke-width: 1.0; stroke-dasharray: 7.0,7.0;"/>
        <polygon fill="#A80036" points="1808.67,183.9202,1804.7899,174.8678,1805.0035,180.5207,1799.3507,180.7342,1808.67,183.9202" style="stroke: #A80036; stroke-width: 1.0;"/>
        <path d="M1385.82,85.819 C1480.5,89.008 1798.35,102.343 1892,140 C1909.54,147.055 1926.49,158.807 1940.64,170.5167 " fill="none" style="stroke: #A80036; stroke-width: 1.0;"/>
        <polygon fill="none" points="1945.49,165.461,1955.82,183.9583,1936.21,175.9444,1945.49,165.461" style="stroke: #A80036; stroke-width: 1.0;"/>
        <path d="M1385.93,85.461 C1519.68,87.928 2109.05,100.955 2180,140 C2195.9,148.753 2208.02,165.1142 2216.23,179.4771 " fill="none" style="stroke: #A80036; stroke-width: 1.0; stroke-dasharray: 7.0,7.0;"/>
        <polygon fill="#A80036" points="2218.65,183.8598,2217.7947,174.0481,2216.2302,179.4843,2210.794,177.9198,2218.65,183.8598" style="stroke: #A80036; stroke-width: 1.0;"/>
        <path d="M1385.71,85.183 C1496.13,86.239 1917.05,93.309 2040,140 C2063.17,148.799 2085.44,165.5757 2101.91,180.1396 " fill="none" style="stroke: #A80036; stroke-width: 1.0; stroke-dasharray: 7.0,7.0;"/>
        <polygon fill="#A80036" points="2105.97,183.7884,2101.9511,174.7968,2102.2516,180.4457,2096.6027,180.7463,2105.97,183.7884" style="stroke: #A80036; stroke-width: 1.0;"/>
        <path d="M1385.51,85.686 C1527.04,89.471 2190.41,108.766 2276,140 C2299.62,148.619 2322.3,165.5764 2338.98,180.2743 " fill="none" style="stroke: #A80036; stroke-width: 1.0; stroke-dasharray: 7.0,7.0;"/>
        <polygon fill="#A80036" points="2343.09,183.9559,2339.0452,174.9759,2339.362,180.6239,2333.714,180.9407,2343.09,183.9559" style="stroke: #A80036; stroke-width: 1.0;"/>
        <path d="M1385.55,85.448 C1541.09,88.194 2330.72,103.838 2432,140 C2455.85,148.514 2478.78,165.4726 2495.66,180.1971 " fill="none" style="stroke: #A80036; stroke-width: 1.0; stroke-dasharray: 7.0,7.0;"/>
        <polygon fill="#A80036" points="2499.81,183.8859,2495.7271,174.9232,2496.0679,180.5698,2490.4213,180.9105,2499.81,183.8859" style="stroke: #A80036; stroke-width: 1.0;"/>
        <!--
@startuml
annotation java.lang.Override
class inception.App
class inception.model.DummyStimulus
class inception.plugin.Plugin
class inception.plugin.PluginLoaderException
class inception.plugin.PluginManager
class inception.plugin.PluginsLoader
class inception.plugin.VideoPlugin
class inception.view.ViewService
class java.io.File
class java.io.IOException
class java.net.URISyntaxException
class java.net.URL
class java.util.Properties
class javafx.application.Application
class javafx.scene.Node
class javafx.scene.Scene
class javafx.scene.layout.AnchorPane
class javafx.stage.Stage
inception.App ..> java.lang.Override
inception.App ..> inception.model.DummyStimulus
inception.App ..> inception.plugin.Plugin
inception.App ..> inception.plugin.PluginLoaderException
inception.App ..> inception.plugin.PluginManager
inception.App ..> inception.plugin.PluginsLoader
inception.App ..> inception.plugin.VideoPlugin
inception.App ..> inception.view.ViewService
inception.App ..> java.io.File
inception.App ..> java.io.IOException
inception.App ..> java.net.URISyntaxException
inception.App ..> java.net.URL
inception.App ..> java.util.Properties
inception.App - -|> javafx.application.Application
inception.App ..> javafx.scene.Node
inception.App ..> javafx.scene.Scene
inception.App ..> javafx.scene.layout.AnchorPane
inception.App ..> javafx.stage.Stage
@enduml

PlantUML version 2017.11(Wed Apr 19 09:18:59 PDT 2017)
(GPL source distribution)
Java Runtime: Java(TM) SE Runtime Environment
JVM: Java HotSpot(TM) 64-Bit Server VM
Java Version: 1.8.0_121-b13
Operating System: Windows 10
OS Version: 10.0
Default Encoding: Cp1252
Language: en
Country: GB
-->
    </g>
</svg>
